{"title":"When in Rome [2010] BRRip H264.AAC - FEEL-FREE","uid":5594168,"size":1165397976,"categoryP":"video","categoryS":"movies","magnet":"?xt=urn:btih:81f12354ac92cb80f4fc3de3d735b3e4371f7849&amp;dn=When+in+Rome+%5B2010%5D+BRRip+H264.AAC+-+FEEL-FREE&amp;tr=udp%3A%2F%2Ftracker.openbittorrent.com%3A80&amp;tr=udp%3A%2F%2Fopen.demonii.com%3A1337&amp;tr=udp%3A%2F%2Ftracker.coppersurfer.tk%3A6969&amp;tr=udp%3A%2F%2Fexodus.desync.com%3A6969","seeders":0,"leechers":0,"uploader":"neon","files":-1,"time":1274973510,"description":"FEEL-FREE TEAM\n\n.............................................\nGENRE:Comedy, Romance\nAUDIO:English\nLanguage:English\nSource: 720p.Bluray.x264-CBGB\nIMDB: http://www.imdb.com/title/tt1185416/\nSubtitles: Romanian\nEncoder: Tony2\n..............................................\nGeneral\nComplete name : When.in.Rome.2010.BRRip.H264.AAC.FEEL-FREE\nFormat : MPEG-4\nFormat profile : Base Media\nCodec ID : isom\nFile size : 1.08 GiB\nDuration : 1h 30mn\nOverall bit rate : 1 708 Kbps\n...............................................\nVideo\nID : 2\nFormat : AVC\nFormat/Info : Advanced Video Codec\nFormat profile : &lt;a class=&quot;__cf_email__&quot; href=&quot;/cdn-cgi/l/email-protection&quot; data-cfemail=&quot;2e6c4f5d4b4247404b6e621f001d&quot;&gt;[email&amp;#160;protected]&lt;/a&gt;&lt;script cf-hash='f9e31' type=&quot;text/javascript&quot;&gt;\n/* &lt;![CDATA[ */!function(){try{var t=&quot;currentScript&quot;in document?document.currentScript:function(){for(var t=document.getElementsByTagName(&quot;script&quot;),e=t.length;e--;)if(t[e].getAttribute(&quot;cf-hash&quot;))return t[e]}();if(t&amp;&amp;t.previousSibling){var e,r,n,i,c=t.previousSibling,a=c.getAttribute(&quot;data-cfemail&quot;);if(a){for(e=&quot;&quot;,r=parseInt(a.substr(0,2),16),n=2;a.length-n;n+=2)i=parseInt(a.substr(n,2),16)^r,e+=String.fromCharCode(i);e=document.createTextNode(e),c.parentNode.replaceChild(e,c)}}}catch(u){}}();/* ]]&gt; */&lt;/script&gt;\nFormat settings, CABAC : No\nFormat settings, ReFrames : 1 frame\nCodec ID : avc1\nCodec ID/Info : Advanced Video Coding\nDuration : 1h 30mn\nBit rate mode : Variable\nBit rate : 1 525 Kbps\nWidth : 720 pixels\nHeight : 304 pixels\nDisplay aspect ratio : 2.35:1\nFrame rate mode : Constant\nFrame rate : 23.976 fps\nResolution : 24 bits\nColorimetry : 4:2:0\nScan type : Progressive\nBits/(Pixel*Frame) : 0.291\nStream size : 990 MiB (89%)\nLanguage : English\n..................................................\nAudio\nID : 1\nFormat : AAC\nFormat/Info : Advanced Audio Codec\nFormat version : Version 4\nFormat profile : LC\nFormat settings, SBR : No\nCodec ID : 40\nDuration : 1h 30mn\nBit rate mode : Constant\nBit rate : 177 Kbps\nChannel(s) : 6 channels\nChannel positions : Front: L C R, Rear: L R, LFE\nSampling rate : 44.1 KHz\nResolution : 16 bits\nStream size : 115 MiB (10%)\nLanguage : English\n...................................................\nPlot:\nBeth is a young, ambitious New Yorker who is completely unlucky in love. However, on a whirlwind trip to Rome, she impulsively steals some coins from a reputed fountain of love, and is then aggressively pursued by a band of suitors.\n","torrent":{"xt":"urn:btih:81f12354ac92cb80f4fc3de3d735b3e4371f7849","amp;dn":"When+in+Rome+%5B2010%5D+BRRip+H264.AAC+-+FEEL-FREE","amp;tr":["udp%3A%2F%2Ftracker.openbittorrent.com%3A80","udp%3A%2F%2Fopen.demonii.com%3A1337","udp%3A%2F%2Ftracker.coppersurfer.tk%3A6969","udp%3A%2F%2Fexodus.desync.com%3A6969"],"infoHash":"81f12354ac92cb80f4fc3de3d735b3e4371f7849","infoHashBuffer":{"type":"Buffer","data":[129,241,35,84,172,146,203,128,244,252,61,227,215,53,179,228,55,31,120,73]},"announce":[],"urlList":[]}}